<svg width="16" height="16" viewBox="0 0 16 16" fill="none" xmlns="http://www.w3.org/2000/svg">
<path fill-rule="evenodd" clip-rule="evenodd" d="M8.5 1.5C8.77614 1.5 9 1.72386 9 2L9 11.2929L13.6464 6.64645C13.8417 6.45118 14.1583 6.45118 14.3536 6.64645C14.5488 6.84171 14.5488 7.15829 14.3536 7.35355L8.85355 12.8536C8.65829 13.0488 8.34171 13.0488 8.14645 12.8536L2.64645 7.35355C2.45118 7.15829 2.45118 6.84171 2.64645 6.64645C2.84171 6.45118 3.15829 6.45118 3.35355 6.64645L8 11.2929L8 2C8 1.72386 8.22386 1.5 8.5 1.5ZM2 14C1.72386 14 1.5 14.2239 1.5 14.5C1.5 14.7761 1.72386 15 2 15H15C15.2761 15 15.5 14.7761 15.5 14.5C15.5 14.2239 15.2761 14 15 14H2Z" fill="black" fill-opacity="0.6"/>
</svg>
