<svg width="16" height="16" viewBox="0 0 16 16" fill="none" xmlns="http://www.w3.org/2000/svg">
<path fill-rule="evenodd" clip-rule="evenodd" d="M2 2.5C2 2.22386 2.22386 2 2.5 2H8.5C8.65738 2 8.80557 2.0741 8.9 2.2L9.8 3.4C10.0833 3.77771 10.5279 4 11 4H13.5C13.7761 4 14 4.22386 14 4.5V13.5C14 13.7761 13.7761 14 13.5 14H2.5C2.22386 14 2 13.7761 2 13.5V11H1V13.5C1 14.3284 1.67157 15 2.5 15H13.5C14.3284 15 15 14.3284 15 13.5V4.5C15 3.67157 14.3284 3 13.5 3H11C10.8426 3 10.6944 2.9259 10.6 2.8L9.7 1.6C9.41672 1.22229 8.97214 1 8.5 1H2.5C1.67157 1 1 1.67157 1 2.5V6H2V2.5Z" fill="black" fill-opacity="0.6"/>
<path fill-rule="evenodd" clip-rule="evenodd" d="M6.81235 6.10958C6.59672 5.93708 6.28207 5.97204 6.10957 6.18767C5.93706 6.4033 5.97202 6.71795 6.18765 6.89045L7.58323 8.00691C7.55616 8.00238 7.52836 8.00002 7.5 8.00002H0.5C0.223858 8.00002 0 8.22388 0 8.50002C0 8.77616 0.223858 9.00002 0.5 9.00002H7.5C7.52836 9.00002 7.55616 8.99766 7.58323 8.99312L6.18765 10.1096C5.97202 10.2821 5.93706 10.5967 6.10957 10.8124C6.28207 11.028 6.59672 11.063 6.81235 10.8905L9.11713 9.04663C9.46741 8.7664 9.46741 8.23364 9.11713 7.95341L6.81235 6.10958ZM7.96289 8.68939L8.19961 8.50002L7.96289 8.31064C7.98681 8.36905 8 8.433 8 8.50002C8 8.56704 7.98681 8.63098 7.96289 8.68939Z" fill="black" fill-opacity="0.6"/>
</svg>
