<svg width="16" height="16" viewBox="0 0 16 16" fill="none" xmlns="http://www.w3.org/2000/svg">
<path fill-rule="evenodd" clip-rule="evenodd" d="M4 2.5C4 1.67157 4.67157 1 5.5 1H13.5C14.3284 1 15 1.67157 15 2.5V10.5C15 11.3284 14.3284 12 13.5 12H12V13.5C12 14.3284 11.3284 15 10.5 15H2.5C1.67157 15 1 14.3284 1 13.5V5.5C1 4.67157 1.67157 4 2.5 4H4V2.5ZM5 4H10.5C11.3284 4 12 4.67157 12 5.5V11H13.5C13.7761 11 14 10.7761 14 10.5V2.5C14 2.22386 13.7761 2 13.5 2H5.5C5.22386 2 5 2.22386 5 2.5V4ZM2 5.5C2 5.22386 2.22386 5 2.5 5H10.5C10.7761 5 11 5.22386 11 5.5V13.5C11 13.7761 10.7761 14 10.5 14H2.5C2.22386 14 2 13.7761 2 13.5V5.5Z" fill="black" fill-opacity="0.6"/>
</svg>
