<svg width="16" height="16" viewBox="0 0 16 16" fill="currentColor" xmlns="http://www.w3.org/2000/svg">
  <path fill-rule="evenodd" clip-rule="evenodd"
        d="M6.49935 1C6.34197 1 6.19378 1.0741 6.09935 1.2L4.74935 3H3.50049H1.5C1.22386 3 1 3.22386 1 3.5C1 3.77614 1.22386 4 1.5 4H3.00049V14.5C3.00049 14.7761 3.22435 15 3.50049 15H12.5005C12.7766 15 13.0005 14.7761 13.0005 14.5V4H14.5C14.7761 4 15 3.77614 15 3.5C15 3.22386 14.7761 3 14.5 3H12.5005H11.2494L9.90006 1.20008C9.80564 1.07413 9.65742 1 9.5 1H6.49935ZM9.99961 3L9.24994 2H6.74935L5.99935 3H9.99961ZM4.99935 4H4.00049V14H12.0005V4H10.9993H4.99935ZM6.50089 6.00002C6.77703 6.00005 7.00086 6.22393 7.00084 6.50007L7.00038 11.5C7.00036 11.7761 6.77648 12 6.50033 12C6.22419 11.9999 6.00036 11.7761 6.00038 11.4999L6.00084 6.49998C6.00086 6.22383 6.22474 6 6.50089 6.00002ZM10 6.50004C10 6.2239 9.77614 6.00004 9.5 6.00004C9.22386 6.00004 9 6.2239 9 6.50004V11.5C9 11.7762 9.22386 12 9.5 12C9.77614 12 10 11.7762 10 11.5V6.50004Z"
        fill="currentColor"/>
</svg>
