<svg width="16" height="16" viewBox="0 0 16 16" fill="none" xmlns="http://www.w3.org/2000/svg">
<path fill-rule="evenodd" clip-rule="evenodd" d="M3.97448 0.342022C3.88715 0.0800501 3.60399 -0.0615299 3.34202 0.025794C3.08005 0.113118 2.93847 0.396278 3.02579 0.65825L3.35913 1.65825C3.44645 1.92022 3.72961 2.0618 3.99158 1.97448C4.25355 1.88715 4.39513 1.60399 4.30781 1.34202L3.97448 0.342022ZM0.65825 3.02579C0.396278 2.93847 0.113118 3.08005 0.025794 3.34202C-0.0615299 3.60399 0.0800501 3.88715 0.342022 3.97448L1.34202 4.30781C1.60399 4.39513 1.88715 4.25355 1.97448 3.99158C2.0618 3.72961 1.92022 3.44645 1.65825 3.35913L0.65825 3.02579ZM1.14658 1.14658C1.34184 0.95132 1.65843 0.95132 1.85369 1.14658L2.85369 2.14658C3.04895 2.34184 3.04895 2.65843 2.85369 2.85369C2.65843 3.04895 2.34185 3.04895 2.14659 2.85369L1.14658 1.85369C0.95132 1.65843 0.95132 1.34185 1.14658 1.14658ZM8 3C5.79086 3 4 4.79086 4 7V12H12V7C12 4.79086 10.2091 3 8 3ZM3 7C3 4.23858 5.23858 2 8 2C10.7614 2 13 4.23858 13 7V12.2959C13 12.6848 12.6848 13 12.2959 13H3.70408C3.31523 13 3 12.6848 3 12.2959V7ZM1.5 14.5C1.5 14.2239 1.72386 14 2 14H14C14.2761 14 14.5 14.2239 14.5 14.5C14.5 14.7761 14.2761 15 14 15H2C1.72386 15 1.5 14.7761 1.5 14.5Z" fill="black" fill-opacity="0.6"/>
</svg>
