<svg width="16" height="16" viewBox="0 0 16 16" fill="none" xmlns="http://www.w3.org/2000/svg">
<path fill-rule="evenodd" clip-rule="evenodd" d="M10.8996 1.10314C10.794 0.996962 10.6504 0.937191 10.5006 0.937012C10.3507 0.936833 10.207 0.996262 10.1011 1.10219L3.0572 8.1454C2.95137 8.25123 2.89194 8.39477 2.89199 8.54444L2.89304 11.5074C2.89315 11.8188 3.14563 12.0712 3.45704 12.0712L6.41905 12.0713C6.56863 12.0713 6.71209 12.0119 6.81786 11.9061L13.8548 4.86983C14.0747 4.64993 14.0751 4.29352 13.8558 4.07311L10.8996 1.10314ZM4.02087 10.9432L4.0201 8.7778L10.4989 2.29958L12.6593 4.47004L6.18546 10.9432L4.02087 10.9432ZM1.99891 13.9616C1.70153 13.9616 1.46045 14.2027 1.46045 14.5C1.46045 14.7974 1.70153 15.0385 1.99891 15.0385H13.9989C14.2963 15.0385 14.5374 14.7974 14.5374 14.5C14.5374 14.2027 14.2963 13.9616 13.9989 13.9616H1.99891Z" fill="black" fill-opacity="0.6"/>
</svg>
