<svg width="32" height="32" viewBox="0 0 32 32" fill="none" xmlns="http://www.w3.org/2000/svg">
<path d="M3 5.8C3 4.11984 3 3.27976 3.32698 2.63803C3.6146 2.07354 4.07354 1.6146 4.63803 1.32698C5.27976 1 6.11984 1 7.8 1H22L29 8V26.2C29 27.8802 29 28.7202 28.673 29.362C28.3854 29.9265 27.9265 30.3854 27.362 30.673C26.7202 31 25.8802 31 24.2 31H7.8C6.11984 31 5.27976 31 4.63803 30.673C4.07354 30.3854 3.6146 29.9265 3.32698 29.362C3 28.7202 3 27.8802 3 26.2V5.8Z" fill="#97A5B5"/>
<path fill-rule="evenodd" clip-rule="evenodd" d="M18.7001 9.00091C18.23 8.81942 17.7364 9.11135 17.3694 9.45672C17.0114 9.7936 16.5293 10 15.999 10C15.4688 10 14.9868 9.79374 14.6289 9.45707C14.2619 9.11179 13.7682 8.81999 13.2981 9.0016C12.5657 9.28454 11.8889 9.67913 11.2884 10.1645C10.8968 10.4811 10.9022 11.054 11.0171 11.5443C11.1292 12.0221 11.0667 12.542 10.8019 13.0005C10.5372 13.4591 10.1182 13.7732 9.64841 13.915C9.16576 14.0608 8.66627 14.3431 8.58899 14.8413C8.5304 15.219 8.5 15.606 8.5 16.0002C8.5 16.3943 8.53041 16.7814 8.58901 17.1592C8.66631 17.6575 9.16597 17.9397 9.64873 18.0854C10.1187 18.2272 10.5378 18.5413 10.8026 19C11.0674 19.4586 11.1299 19.9785 11.0178 20.4564C10.9028 20.9468 10.8974 21.5198 11.2891 21.8364C11.8893 22.3215 12.5658 22.7158 13.2979 22.9986C13.768 23.1803 14.2617 22.8884 14.6288 22.5431C14.9867 22.2063 15.4688 22 15.999 22C16.5294 22 17.0115 22.2065 17.3695 22.5434C17.7365 22.8889 18.2302 23.1809 18.7004 22.9993C19.4317 22.717 20.1077 22.3233 20.7075 21.8391C21.1 21.5223 21.0943 20.9483 20.9789 20.4573C20.8664 19.9791 20.9288 19.4587 21.1938 18.9997C21.4589 18.5404 21.8788 18.2261 22.3496 18.0845C22.8331 17.9391 23.3339 17.6568 23.4112 17.1578C23.4697 16.7805 23.5 16.3939 23.5 16.0002C23.5 15.6061 23.4696 15.2191 23.411 14.8415C23.3337 14.3428 22.8333 14.0605 22.3501 13.915C21.8796 13.7734 21.46 13.4591 21.1949 13C20.93 12.5412 20.8676 12.0211 20.9798 11.5431C21.0951 11.0523 21.1006 10.4787 20.7084 10.162C20.1083 9.67737 19.4319 9.2834 18.7001 9.00091ZM19 16C19 17.6569 17.6569 19 16 19C14.3431 19 13 17.6569 13 16C13 14.3431 14.3431 13 16 13C17.6569 13 19 14.3431 19 16Z" fill="white"/>
</svg>
