<svg width="32" height="32" viewBox="0 0 32 32" fill="none" xmlns="http://www.w3.org/2000/svg">
<path d="M3 4.2C3 3.0799 3 2.51984 3.21799 2.09202C3.40973 1.71569 3.71569 1.40973 4.09202 1.21799C4.51984 1 5.0799 1 6.2 1H22L29 8V27.8C29 28.9201 29 29.4802 28.782 29.908C28.5903 30.2843 28.2843 30.5903 27.908 30.782C27.4802 31 26.9201 31 25.8 31H6.2C5.0799 31 4.51984 31 4.09202 30.782C3.71569 30.5903 3.40973 30.2843 3.21799 29.908C3 29.4802 3 28.9201 3 27.8V4.2Z" fill="#7E6EFE"/>
<path fill-rule="evenodd" clip-rule="evenodd" d="M9.5 12C8.67157 12 8 12.6716 8 13.5V19.5C8 20.3284 8.67157 21 9.5 21H16.5C17.3284 21 18 20.3284 18 19.5V13.5C18 12.6716 17.3284 12 16.5 12H9.5ZM19.4855 14.2087L22.4855 12.4087C23.152 12.0088 24 12.4889 24 13.2662V19.7338C24 20.5111 23.152 20.9912 22.4855 20.5913L19.4855 18.7913C19.1843 18.6106 19 18.2851 19 17.9338V15.0662C19 14.7149 19.1843 14.3894 19.4855 14.2087Z" fill="white"/>
</svg>
