<svg width="32" height="32" viewBox="0 0 32 32" fill="none" xmlns="http://www.w3.org/2000/svg">
<path d="M3 4.2C3 3.0799 3 2.51984 3.21799 2.09202C3.40973 1.71569 3.71569 1.40973 4.09202 1.21799C4.51984 1 5.0799 1 6.2 1H22L29 8V27.8C29 28.9201 29 29.4802 28.782 29.908C28.5903 30.2843 28.2843 30.5903 27.908 30.782C27.4802 31 26.9201 31 25.8 31H6.2C5.0799 31 4.51984 31 4.09202 30.782C3.71569 30.5903 3.40973 30.2843 3.21799 29.908C3 29.4802 3 28.9201 3 27.8V4.2Z" fill="#E2526C"/>
<path fill-rule="evenodd" clip-rule="evenodd" d="M16 18.3976V11.5C16 11.5 17 9.27273 19 10C21 10.7273 22 9 22 9C22 9 21.5 11.4996 20.3213 12.5C19.2869 13.378 18 13 18 13V20.9996H17.9713C17.7576 22.3783 16.2416 23.6585 14.2923 24.0022C12.082 24.3919 10.1517 23.4301 9.98088 21.8538C9.81004 20.2776 11.4633 18.6839 13.6736 18.2941C14.5173 18.1454 15.3202 18.1935 16 18.3976Z" fill="url(#paint0_linear_903_27889)"/>
<defs>
<linearGradient id="paint0_linear_903_27889" x1="15.9996" y1="8.00049" x2="15.9996" y2="23.6824" gradientUnits="userSpaceOnUse">
<stop stop-color="white" stop-opacity="0.8"/>
<stop offset="1" stop-color="white"/>
</linearGradient>
</defs>
</svg>
