<svg width="32" height="32" viewBox="0 0 32 32" fill="none" xmlns="http://www.w3.org/2000/svg">
<path d="M5.5 5.8C5.5 4.95167 5.50039 4.34549 5.53921 3.87032C5.57756 3.40099 5.65089 3.10366 5.77248 2.86502C6.01217 2.39462 6.39462 2.01217 6.86502 1.77248C7.10366 1.65089 7.40099 1.57756 7.87032 1.53921C8.34549 1.50039 8.95167 1.5 9.8 1.5H22.7929L29.5 8.20711V26.2C29.5 27.0483 29.4996 27.6545 29.4608 28.1297C29.4224 28.599 29.3491 28.8963 29.2275 29.135C28.9878 29.6054 28.6054 29.9878 28.135 30.2275C27.8963 30.3491 27.599 30.4224 27.1297 30.4608C26.6545 30.4996 26.0483 30.5 25.2 30.5H9.8C8.95167 30.5 8.34549 30.4996 7.87032 30.4608C7.40099 30.4224 7.10366 30.3491 6.86502 30.2275C6.39462 29.9878 6.01217 29.6054 5.77248 29.135C5.65089 28.8963 5.57756 28.599 5.53921 28.1297C5.50039 27.6545 5.5 27.0483 5.5 26.2V5.8Z" fill="#FAFAFA" stroke="#E7E7E7"/>
<path d="M25 11H9" stroke="#E7E7E7" stroke-width="2" stroke-linecap="round"/>
<path d="M25 16H9" stroke="#E7E7E7" stroke-width="2" stroke-linecap="round"/>
<path d="M22 21H9" stroke="#E7E7E7" stroke-width="2" stroke-linecap="round"/>
<rect x="1" y="8" width="16" height="16" rx="2" fill="#3C91F1"/>
<path fill-rule="evenodd" clip-rule="evenodd" d="M13 14V12H5V14L8 14V20H10V14L13 14Z" fill="white"/>
</svg>
