<svg width="32" height="32" viewBox="0 0 32 32" fill="none" xmlns="http://www.w3.org/2000/svg">
<path d="M5.5 5.8C5.5 4.95167 5.50039 4.34549 5.53921 3.87032C5.57756 3.40099 5.65089 3.10366 5.77248 2.86502C6.01217 2.39462 6.39462 2.01217 6.86502 1.77248C7.10366 1.65089 7.40099 1.57756 7.87032 1.53921C8.34549 1.50039 8.95167 1.5 9.8 1.5H22.7929L29.5 8.20711V26.2C29.5 27.0483 29.4996 27.6545 29.4608 28.1297C29.4224 28.599 29.3491 28.8963 29.2275 29.135C28.9878 29.6054 28.6054 29.9878 28.135 30.2275C27.8963 30.3491 27.599 30.4224 27.1297 30.4608C26.6545 30.4996 26.0483 30.5 25.2 30.5H9.8C8.95167 30.5 8.34549 30.4996 7.87032 30.4608C7.40099 30.4224 7.10366 30.3491 6.86502 30.2275C6.39462 29.9878 6.01217 29.6054 5.77248 29.135C5.65089 28.8963 5.57756 28.599 5.53921 28.1297C5.50039 27.6545 5.5 27.0483 5.5 26.2V5.8Z" fill="#FAFAFA" stroke="#E7E7E7"/>
<path d="M25 11H9" stroke="#E7E7E7" stroke-width="2" stroke-linecap="round"/>
<path d="M25 16H9" stroke="#E7E7E7" stroke-width="2" stroke-linecap="round"/>
<path d="M25 21H9" stroke="#E7E7E7" stroke-width="2" stroke-linecap="round"/>
<rect x="1" y="8" width="16" height="16" rx="2" fill="#DD5D5D"/>
<path d="M9.2787 14.3833L9.28773 14.3411C9.46236 13.6213 9.68215 12.7238 9.51053 11.9107C9.39612 11.2692 8.92342 11.0192 8.51997 11.0011C8.04426 10.9801 7.61974 11.2511 7.51436 11.6457C7.31565 12.3685 7.49328 13.3563 7.81845 14.6152C7.40898 15.591 6.75563 17.0095 6.27691 17.8528C5.38571 18.3136 4.19042 19.0243 4.01278 19.9218C3.97665 20.0875 4.0188 20.2983 4.11816 20.488C4.22956 20.6988 4.4072 20.8615 4.61494 20.9398C4.70527 20.9729 4.81366 21 4.94011 21C5.47001 21 6.3281 20.5723 7.47221 18.6087C7.64684 18.5515 7.82748 18.4913 8.00211 18.431C8.82105 18.1539 9.6701 17.8648 10.4379 17.7353C11.2869 18.1901 12.2534 18.4822 12.9097 18.4822C13.5601 18.4822 13.816 18.0967 13.9123 17.8648C14.081 17.4582 13.9997 16.9462 13.7257 16.6722C13.3282 16.2807 12.3618 16.1783 10.8564 16.365C10.1157 15.9132 9.63096 15.2988 9.2787 14.3833ZM5.97583 18.9581C5.55733 19.5664 5.24119 19.8706 5.06958 20.0031C5.2713 19.6327 5.66572 19.2412 5.97583 18.9581ZM8.61331 11.8655C8.76987 12.1335 8.7488 12.9437 8.62836 13.3533C8.48083 12.754 8.45976 11.9047 8.54707 11.8053C8.57116 11.8083 8.59223 11.8264 8.61331 11.8655ZM8.56514 15.4946C8.88729 16.0518 9.29375 16.5306 9.74237 16.886C9.09203 17.0336 8.4989 17.2775 7.96899 17.4944C7.84254 17.5456 7.7191 17.5968 7.59866 17.645C7.9991 16.9191 8.3333 16.0969 8.56514 15.4946ZM13.25 17.4673C13.253 17.4733 13.256 17.4823 13.2379 17.4944H13.2319L13.2259 17.5034C13.2018 17.5185 12.9549 17.663 11.8921 17.2444C13.1145 17.1872 13.247 17.4643 13.25 17.4673Z" fill="white"/>
</svg>
