<svg width="32" height="32" viewBox="0 0 32 32" fill="none" xmlns="http://www.w3.org/2000/svg">
<path d="M3 5.8C3 4.11984 3 3.27976 3.32698 2.63803C3.6146 2.07354 4.07354 1.6146 4.63803 1.32698C5.27976 1 6.11984 1 7.8 1H22L29 8V26.2C29 27.8802 29 28.7202 28.673 29.362C28.3854 29.9265 27.9265 30.3854 27.362 30.673C26.7202 31 25.8802 31 24.2 31H7.8C6.11984 31 5.27976 31 4.63803 30.673C4.07354 30.3854 3.6146 29.9265 3.32698 29.362C3 28.7202 3 27.8802 3 26.2V5.8Z" fill="#97A5B5"/>
<path d="M14.3082 19.6006C14.1529 19.6006 14.0493 19.508 14.0493 19.369V18.4197C14.0493 17.4935 14.2564 17.0304 14.7225 16.4515L16.7678 13.9508C17.3892 13.2098 17.6481 12.6773 17.6481 12.0521C17.6481 11.0564 16.8714 10.3155 15.6286 10.3155C14.4118 10.3155 13.6609 10.987 13.4279 12.1679C13.402 12.3068 13.2985 12.3763 13.1431 12.3531L10.813 12.0289C10.6318 12.0058 10.58 11.89 10.6059 11.7511C11.0201 9.4356 12.8842 8 15.7322 8C18.5801 8 20.5996 9.66715 20.5996 12.0289C20.5996 13.0246 20.263 13.8813 19.5381 14.7381L17.4927 17.2388C17.1044 17.6787 16.9749 18.0029 16.9749 18.6975V19.369C16.9749 19.508 16.8714 19.6006 16.716 19.6006H14.3082ZM13.9457 23.7685V21.4067C13.9457 21.2677 14.0493 21.1751 14.2046 21.1751H16.7937C16.949 21.1751 17.0526 21.2677 17.0526 21.4067V23.7685C17.0526 23.9074 16.949 24 16.7937 24H14.2046C14.0493 24 13.9457 23.9074 13.9457 23.7685Z" fill="white"/>
</svg>
