<svg width="32" height="32" viewBox="0 0 32 32" fill="none" xmlns="http://www.w3.org/2000/svg">
<path d="M5.5 5.8C5.5 4.95167 5.50039 4.34549 5.53921 3.87032C5.57756 3.40099 5.65089 3.10366 5.77248 2.86502C6.01217 2.39462 6.39462 2.01217 6.86502 1.77248C7.10366 1.65089 7.40099 1.57756 7.87032 1.53921C8.34549 1.50039 8.95167 1.5 9.8 1.5H22.7929L29.5 8.20711V26.2C29.5 27.0483 29.4996 27.6545 29.4608 28.1297C29.4224 28.599 29.3491 28.8963 29.2275 29.135C28.9878 29.6054 28.6054 29.9878 28.135 30.2275C27.8963 30.3491 27.599 30.4224 27.1297 30.4608C26.6545 30.4996 26.0483 30.5 25.2 30.5H9.8C8.95167 30.5 8.34549 30.4996 7.87032 30.4608C7.40099 30.4224 7.10366 30.3491 6.86502 30.2275C6.39462 29.9878 6.01217 29.6054 5.77248 29.135C5.65089 28.8963 5.57756 28.599 5.53921 28.1297C5.50039 27.6545 5.5 27.0483 5.5 26.2V5.8Z" fill="#FAFAFA" stroke="#E7E7E7"/>
<path fill-rule="evenodd" clip-rule="evenodd" d="M21 9.12582C22.5632 9.52816 23.7565 10.8517 23.9669 12.4832L24 12.4997L25.995 13.2478C25.9983 13.1656 26 13.0829 26 12.9998C26 10.0268 23.8377 7.55884 21 7.08276V9.12582Z" fill="#E7E7E7"/>
<path d="M26 21H16" stroke="#E7E7E7" stroke-width="2" stroke-linecap="round"/>
<path d="M23 25H16" stroke="#E7E7E7" stroke-width="2" stroke-linecap="round"/>
<path fill-rule="evenodd" clip-rule="evenodd" d="M20 8C17.2386 8 15 10.2386 15 13C15 15.7614 17.2386 18 20 18C22.3864 18 24.3823 16.3282 24.8804 14.0919L22.9871 13.2805C22.8456 14.8058 21.5623 16 20 16C18.3431 16 17 14.6569 17 13C17 11.3431 18.3431 10 20 10V8Z" fill="#E7E7E7"/>
<rect x="1" y="8" width="16" height="16" rx="2" fill="#E67A4B"/>
<path fill-rule="evenodd" clip-rule="evenodd" d="M6 11.5H5V20.5H7V17.5H10C11.6569 17.5 13 16.1569 13 14.5C13 12.8431 11.6569 11.5 10 11.5H7H6ZM7 13.5V15.5H10C10.5523 15.5 11 15.0523 11 14.5C11 13.9477 10.5523 13.5 10 13.5H7Z" fill="white"/>
</svg>
