<svg width="32" height="32" viewBox="0 0 32 32" fill="none" xmlns="http://www.w3.org/2000/svg">
<path d="M3 4.2C3 3.0799 3 2.51984 3.21799 2.09202C3.40973 1.71569 3.71569 1.40973 4.09202 1.21799C4.51984 1 5.0799 1 6.2 1H22L29 8V27.8C29 28.9201 29 29.4802 28.782 29.908C28.5903 30.2843 28.2843 30.5903 27.908 30.782C27.4802 31 26.9201 31 25.8 31H6.2C5.0799 31 4.51984 31 4.09202 30.782C3.71569 30.5903 3.40973 30.2843 3.21799 29.908C3 29.4802 3 28.9201 3 27.8V4.2Z" fill="#97A5B5"/>
<path d="M6.90234 21V12.457H12.3574V13.6816H8.19727V16.1191H11.748V17.2676H8.19727V19.7754H12.3574V21H6.90234ZM15.8965 17.8184L14.0215 21H12.5625L15.1758 16.623L12.7266 12.457H14.1914L15.8965 15.4219L17.6016 12.457H19.0605L16.6172 16.623L19.2305 21H17.7656L15.8965 17.8184ZM20.0156 21V12.457H25.4707V13.6816H21.3105V16.1191H24.8613V17.2676H21.3105V19.7754H25.4707V21H20.0156Z" fill="white"/>
</svg>
