<svg width="32" height="32" viewBox="0 0 32 32" fill="none" xmlns="http://www.w3.org/2000/svg">
<path d="M3 4.2C3 3.0799 3 2.51984 3.21799 2.09202C3.40973 1.71569 3.71569 1.40973 4.09202 1.21799C4.51984 1 5.0799 1 6.2 1H22L29 8V27.8C29 28.9201 29 29.4802 28.782 29.908C28.5903 30.2843 28.2843 30.5903 27.908 30.782C27.4802 31 26.9201 31 25.8 31H6.2C5.0799 31 4.51984 31 4.09202 30.782C3.71569 30.5903 3.40973 30.2843 3.21799 29.908C3 29.4802 3 28.9201 3 27.8V4.2Z" fill="#97A5B5"/>
<circle cx="16.0004" cy="15.9999" r="1.1" fill="white"/>
<path d="M11 16C11 13.2445 13.2448 11 16 11C18.7559 11 21 13.2443 21 16C21 18.7557 18.7559 21 16 21C13.2448 21 11 18.7555 11 16Z" stroke="white" stroke-width="4"/>
<path fill-rule="evenodd" clip-rule="evenodd" d="M18.8776 16.8464C18.7151 17.3999 18.3973 17.887 17.9746 18.2573L20.6071 21.2658C21.5934 20.4017 22.3357 19.2654 22.7157 17.9754L18.8776 16.8464Z" fill="#E8E8E8"/>
</svg>
