<svg width="32" height="32" viewBox="0 0 32 32" fill="none" xmlns="http://www.w3.org/2000/svg">
<path d="M2 7.2C2 6.0799 2 5.51984 2.21799 5.09202C2.40973 4.71569 2.71569 4.40973 3.09202 4.21799C3.51984 4 4.0799 4 5.2 4H12.8775C13.2935 4 13.5016 4 13.7005 4.04084C13.877 4.07706 14.0479 4.13698 14.2083 4.21897C14.3892 4.31138 14.5517 4.44132 14.8765 4.70122L15.6235 5.29878C15.9483 5.55868 16.1108 5.68862 16.2917 5.78103C16.4521 5.86302 16.623 5.92294 16.7995 5.95916C16.9984 6 17.2065 6 17.6225 6H26.8C27.9201 6 28.4802 6 28.908 6.21799C29.2843 6.40973 29.5903 6.71569 29.782 7.09202C30 7.51984 30 8.0799 30 9.2V24.8C30 25.9201 30 26.4802 29.782 26.908C29.5903 27.2843 29.2843 27.5903 28.908 27.782C28.4802 28 27.9201 28 26.8 28H5.2C4.0799 28 3.51984 28 3.09202 27.782C2.71569 27.5903 2.40973 27.2843 2.21799 26.908C2 26.4802 2 25.9201 2 24.8V7.2Z" fill="#E89A26"/>
<path d="M2 11.2C2 10.0799 2 9.51984 2.21799 9.09202C2.40973 8.71569 2.71569 8.40973 3.09202 8.21799C3.51984 8 4.0799 8 5.2 8H26.8C27.9201 8 28.4802 8 28.908 8.21799C29.2843 8.40973 29.5903 8.71569 29.782 9.09202C30 9.51984 30 10.0799 30 11.2V24.8C30 25.9201 30 26.4802 29.782 26.908C29.5903 27.2843 29.2843 27.5903 28.908 27.782C28.4802 28 27.9201 28 26.8 28H5.2C4.0799 28 3.51984 28 3.09202 27.782C2.71569 27.5903 2.40973 27.2843 2.21799 26.908C2 26.4802 2 25.9201 2 24.8V11.2Z" fill="#FFC34C"/>
<path fill-rule="evenodd" clip-rule="evenodd" d="M18 12H14V18H10L16 24L22 18H18V12Z" fill="#DF9425"/>
</svg>
