<svg width="32" height="32" viewBox="0 0 32 32" fill="none" xmlns="http://www.w3.org/2000/svg">
<path d="M3 4.2C3 3.0799 3 2.51984 3.21799 2.09202C3.40973 1.71569 3.71569 1.40973 4.09202 1.21799C4.51984 1 5.0799 1 6.2 1H22L29 8V27.8C29 28.9201 29 29.4802 28.782 29.908C28.5903 30.2843 28.2843 30.5903 27.908 30.782C27.4802 31 26.9201 31 25.8 31H6.2C5.0799 31 4.51984 31 4.09202 30.782C3.71569 30.5903 3.40973 30.2843 3.21799 29.908C3 29.4802 3 28.9201 3 27.8V4.2Z" fill="#3C91F1"/>
<path d="M8.42645 23C7.6163 23 7.14241 22.0871 7.60864 21.4245L10.8356 16.8387C11.2112 16.3049 11.9892 16.2682 12.4134 16.7642L13.8431 18.4359C14.2891 18.9574 15.1158 18.885 15.4644 18.294L18.3041 13.4792C18.6935 12.819 19.6504 12.8243 20.0324 13.4889L24.6386 21.5016C25.0219 22.1683 24.5407 23 23.7717 23H8.42645Z" fill="white"/>
<circle cx="11" cy="11" r="2" fill="white"/>
</svg>
